<?xml version="1.0" encoding="UTF-8"?>
<svg xmlns="http://www.w3.org/2000/svg" width="520" height="340" viewBox="0 0 520 340" fill="none">
  <g clip-path="url(#clip0_404_2242)">
    <path d="M0 8C0 3.58172 3.58172 0 8 0H512C516.418 0 520 3.58172 520 8V332C520 336.418 516.418 340 512 340H8C3.58172 340 0 336.418 0 332V8Z" fill="#25303E"></path>
    <path d="M154.329 175.314C149.307 180.337 149.307 188.489 154.329 193.511C159.351 198.533 167.504 198.533 172.526 193.511C177.548 188.489 177.548 180.337 172.526 175.314C167.504 170.292 159.351 170.292 154.329 175.314ZM167.951 188.936C165.474 191.413 161.415 191.413 158.939 188.936C156.462 186.459 156.462 182.4 158.939 179.924C161.415 177.447 165.474 177.447 167.951 179.924C170.428 182.4 170.428 186.459 167.951 188.936ZM180.128 177.929H185.528V180.646C186.835 178.857 188.658 177.55 191.445 177.55C195.882 177.55 200.113 181.024 200.113 187.388V187.457C200.113 193.821 195.951 197.295 191.445 197.295C188.555 197.295 186.801 195.988 185.528 194.44V202.592H180.128V177.929ZM194.713 187.491V187.423C194.713 184.258 192.58 182.16 190.069 182.16C187.558 182.16 185.459 184.258 185.459 187.423V187.491C185.459 190.656 187.558 192.754 190.069 192.754C192.58 192.72 194.713 190.69 194.713 187.491ZM203.931 187.526V187.457C203.931 182.056 207.784 177.585 213.287 177.585C219.617 177.585 222.506 182.504 222.506 187.87C222.506 188.282 222.472 188.798 222.437 189.28H209.263C209.779 191.722 211.499 192.995 213.907 192.995C215.695 192.995 217.002 192.445 218.516 191.069L221.577 193.786C219.823 195.988 217.278 197.329 213.838 197.329C208.128 197.295 203.931 193.305 203.931 187.526ZM217.278 185.909C216.968 183.501 215.558 181.884 213.287 181.884C211.052 181.884 209.607 183.467 209.194 185.909H217.278ZM226.359 177.929H231.862V180.681C233.135 179.064 234.752 177.585 237.538 177.585C241.7 177.585 244.108 180.337 244.108 184.774V197.295H238.604V186.494C238.604 183.88 237.366 182.572 235.268 182.572C233.17 182.572 231.828 183.914 231.828 186.494V197.295H226.324V177.929H226.359ZM172.319 112.056L164.442 119.934C162.894 121.482 162.894 123.993 164.442 125.54L195.229 156.327C196.776 157.875 199.287 157.875 200.835 156.327L208.713 148.45C210.26 146.902 210.26 144.391 208.713 142.843L177.926 112.056C176.378 110.509 173.867 110.509 172.319 112.056ZM117.111 212.739C118.521 211.329 118.521 209.059 117.111 207.649L113.086 203.624C111.676 202.214 109.405 202.214 107.995 203.624L99.7396 211.88L97.4693 209.609C96.231 208.371 94.1671 208.371 92.9287 209.609C91.6904 210.848 91.6904 212.911 92.9287 214.15L106.585 227.806C107.823 229.044 109.887 229.044 111.125 227.806C112.364 226.567 112.364 224.504 111.125 223.265L108.855 220.995L117.111 212.739Z" fill="white"></path>
    <path d="M158.801 134.656L141.292 152.164C139.745 153.712 139.745 156.292 141.292 157.84L152.093 168.641C159.73 163.137 170.462 163.825 177.342 170.705L186.079 161.968C187.627 160.42 187.627 157.84 186.079 156.292L164.477 134.69C162.894 133.108 160.349 133.108 158.801 134.656ZM147.553 173.216L141.155 166.818C139.676 165.339 137.199 165.339 135.72 166.818L113.189 189.349C111.71 190.828 111.71 193.304 113.189 194.783L125.951 207.545C127.43 209.024 129.907 209.024 131.386 207.545L145.867 193.064C142.84 186.7 143.391 179.064 147.553 173.216ZM254.29 176.759H246.447V171.53H267.808V176.759H259.966V197.295H254.29V176.759ZM267.843 187.491V187.422C267.843 182.022 271.695 177.55 277.199 177.55C283.528 177.55 286.418 182.469 286.418 187.835C286.418 188.248 286.383 188.764 286.349 189.245H273.174C273.69 191.688 275.41 192.96 277.818 192.96C279.607 192.96 280.914 192.41 282.428 191.034L285.489 193.752C283.735 195.953 281.189 197.295 277.749 197.295C272.039 197.295 267.843 193.304 267.843 187.491ZM281.189 185.909C280.88 183.501 279.469 181.884 277.199 181.884C274.963 181.884 273.518 183.467 273.106 185.909H281.189ZM290.236 171.53H295.602V197.295H290.236V171.53ZM299.42 187.525V187.457C299.42 182.056 303.273 177.584 308.776 177.584C315.106 177.584 317.995 182.503 317.995 187.869C317.995 188.282 317.961 188.798 317.926 189.28H304.752C305.268 191.722 306.988 192.995 309.396 192.995C311.184 192.995 312.491 192.444 314.005 191.068L317.066 193.786C315.312 195.987 312.767 197.329 309.327 197.329C303.651 197.295 299.42 193.304 299.42 187.525ZM312.801 185.943C312.491 183.535 311.081 181.919 308.811 181.919C306.575 181.919 305.13 183.501 304.717 185.943H312.801ZM321.848 177.928H327.351V180.68C328.624 179.064 330.275 177.584 333.061 177.584C335.573 177.584 337.499 178.72 338.496 180.646C340.182 178.651 342.211 177.584 344.86 177.584C348.953 177.584 351.396 180.027 351.396 184.705V197.295H345.892V186.494C345.892 183.879 344.722 182.572 342.693 182.572C340.629 182.572 339.356 183.914 339.356 186.494V197.295H333.853V186.494C333.853 183.879 332.683 182.572 330.654 182.572C328.59 182.572 327.317 183.914 327.317 186.494V197.295H321.813V177.928H321.848ZM355.214 187.491V187.422C355.214 182.022 359.066 177.55 364.57 177.55C370.899 177.55 373.789 182.469 373.789 187.835C373.789 188.248 373.754 188.764 373.72 189.245H360.546C361.061 191.688 362.781 192.96 365.189 192.96C366.978 192.96 368.285 192.41 369.799 191.034L372.86 193.752C371.106 195.953 368.56 197.295 365.12 197.295C359.41 197.295 355.214 193.304 355.214 187.491ZM368.56 185.909C368.251 183.501 366.84 181.884 364.57 181.884C362.334 181.884 360.889 183.467 360.477 185.909H368.56ZM378.226 191.447V182.194H375.887V177.447H378.226V172.459H383.764V177.447H388.374V182.194H383.799V190.518C383.799 191.791 384.349 192.41 385.587 192.41C386.619 192.41 387.514 192.169 388.305 191.722V196.159C387.135 196.847 385.794 197.295 383.936 197.295C380.531 197.295 378.226 195.953 378.226 191.447ZM392.536 177.791H398.108V181.747C399.243 179.029 401.066 177.275 404.369 177.412V183.26H404.059C400.344 183.26 398.074 185.496 398.074 190.209V197.467H392.501V177.791H392.536ZM422.084 177.584H428L420.295 198.154C418.747 202.248 417.096 203.761 413.69 203.761C411.627 203.761 410.113 203.245 408.634 202.385L410.526 198.258C411.283 198.705 412.211 199.049 412.968 199.049C413.931 199.049 414.482 198.739 414.963 197.742L407.086 177.584H413.106L417.681 191.24L422.084 177.584Z" fill="white"></path>
  </g>
  <defs>
    <clipPath id="clip0_404_2242">
      <rect width="520" height="340" fill="white"></rect>
    </clipPath>
  </defs>
</svg>
