<svg width="1134" height="756" xmlns="http://www.w3.org/2000/svg" xmlns:xlink="http://www.w3.org/1999/xlink" overflow="hidden"><defs><clipPath id="clip0"><rect x="0" y="0" width="1134" height="756"/></clipPath></defs><g clip-path="url(#clip0)"><rect x="0" y="0" width="1134" height="756.056" fill="#FFFFFF"/><g><g><g><path d="M8.85551 0.0139971 6.70928 0.0139971 0 16.7172 2.07157 16.7172 3.68124 12.5694 11.8136 12.5694 11.8276 12.6021 13.5072 16.7172 15.5648 16.7172 8.85551 0.0139971ZM4.27845 10.9131 4.30178 10.8524 7.7684 1.87095 11.2583 10.9131 4.27845 10.9131Z" transform="matrix(1 0 0 1.00354 9.74129 732.054)"/><path d="M19.6286 14.459 15.9427 4.58172 13.8105 4.58172 18.6535 16.7172 20.5991 16.7172 25.4748 4.58172 23.3332 4.58172Z" transform="matrix(1 0 0 1.00354 9.74129 732.054)"/><path d="M36.8497 10.5398C36.8497 8.71087 36.3505 7.21318 35.3614 6.08875 34.3769 4.96431 33.0332 4.39976 31.3722 4.39976 29.6319 4.39976 28.2368 4.98764 27.2244 6.15407 26.2119 7.32049 25.6987 8.82751 25.6987 10.6285 25.6987 12.3874 26.2306 13.8711 27.271 15.0422 28.3068 16.2087 29.6972 16.8105 31.3955 16.8245 32.2027 16.8245 32.9399 16.7079 33.5931 16.4746 34.2416 16.2413 34.7642 15.9194 35.1468 15.5228 35.5247 15.1216 35.8279 14.7156 36.0472 14.3097 36.2525 13.9178 36.3878 13.5259 36.4485 13.134L34.7642 13.134C34.5495 13.7825 34.139 14.3097 33.5511 14.697 32.9772 15.0749 32.2494 15.2662 31.3909 15.2662L31.2976 15.2662C30.3457 15.2522 29.4966 14.8883 28.7594 14.1884 28.0269 13.4886 27.6303 12.5088 27.5883 11.277L27.5836 11.2257 36.8077 11.2257C36.8357 10.8944 36.8497 10.6658 36.8497 10.5398ZM27.6256 9.77932 27.6303 9.728C27.7609 8.5989 28.1529 7.68908 28.7967 7.02189 29.4406 6.35002 30.3084 6.00943 31.3722 6.00943 32.422 6.00943 33.2758 6.35002 33.901 7.02189 34.5262 7.68908 34.8995 8.5989 35.0161 9.728L35.0208 9.77932 27.6256 9.77932Z" transform="matrix(1 0 0 1.00354 9.74129 732.054)"/><path d="M44.7814 4.3531C43.9696 4.3531 43.1764 4.53507 42.4346 4.88966 41.6881 5.24425 41.0955 5.72482 40.6756 6.3127L40.5916 6.42934 40.5916 4.58172 38.6927 4.58172 38.6927 16.7172 40.657 16.7172 40.657 9.10746C40.657 8.2443 41.0162 7.51645 41.7301 6.9519 42.4346 6.38268 43.2837 6.09808 44.2449 6.09808 45.136 6.09808 45.8592 6.36402 46.3958 6.89125 46.9277 7.42314 47.1983 8.13232 47.1983 9.00948L47.1983 16.7172 49.1719 16.7172 49.1719 8.81352C49.1719 7.46046 48.7706 6.36869 47.9728 5.56619 47.1796 4.76369 46.1018 4.3531 44.7814 4.3531Z" transform="matrix(1 0 0 1.00354 9.74129 732.054)"/><path d="M55.9138 15.0609 57.2109 15.0609 57.2109 16.7359 55.9138 16.7359C54.7474 16.7359 53.8376 16.4979 53.2077 16.0314 52.5825 15.5648 52.2652 14.6876 52.2652 13.4279L52.2652 6.12141 50.3383 6.12141 50.3383 4.58172 52.2652 4.58172 52.2652 0.0139971 54.1595 0.0139971 54.1595 4.58172 56.5903 4.58172 56.5903 6.12607 54.1642 6.12141 54.1175 6.11674 54.1175 13.1993C54.1175 13.8198 54.2388 14.2864 54.4768 14.5943 54.7194 14.9023 55.2 15.0609 55.9138 15.0609Z" transform="matrix(1 0 0 1.00354 9.74129 732.054)"/><path d="M59.1331 4.58172 61.1067 4.58172 61.1067 16.7172 59.1331 16.7172Z" transform="matrix(1 0 0 1.00354 9.74129 732.054)"/><path d="M68.0353 9.56936C67.0695 9.39673 66.323 9.16811 65.8191 8.8975 65.3059 8.62222 65.0446 8.16965 65.0446 7.55378 65.0446 6.97056 65.3012 6.52732 65.8098 6.24271 66.3043 5.95811 66.9109 5.82747 67.6014 5.85546 68.1426 5.88812 68.6792 6.05142 69.1971 6.34536 69.7056 6.63463 70.0276 7.09654 70.1489 7.71708L71.8192 7.71708C71.6979 6.62064 71.2453 5.77614 70.4708 5.1976 69.687 4.60972 68.6465 4.31111 67.3774 4.31111 66.169 4.31111 65.1286 4.63305 64.2794 5.26758 63.4349 5.90212 63.0057 6.75594 63.0057 7.80572 63.0057 8.78552 63.3649 9.51804 64.0648 9.97994 64.774 10.4558 65.7351 10.8151 66.9155 11.0531 67.9187 11.2257 68.6978 11.4823 69.2344 11.8089 69.785 12.1402 70.0602 12.6347 70.0602 13.2739 70.0602 13.8898 69.813 14.4077 69.3277 14.8043 68.8425 15.1962 68.2079 15.4062 67.4381 15.4202 66.6683 15.4342 65.9731 15.2055 65.3712 14.739 64.7786 14.2817 64.4287 13.7545 64.3307 13.1806L62.6091 13.1806C62.6978 14.1138 63.155 14.9722 63.9622 15.7374 64.7833 16.5166 65.9637 16.9132 67.4661 16.9132 68.7912 16.9132 69.9016 16.5539 70.7741 15.8401 71.6372 15.1309 72.0758 14.2211 72.0758 13.134 72.0758 11.2863 70.7181 10.0873 68.0353 9.56936Z" transform="matrix(1 0 0 1.00354 9.74129 732.054)"/><path d="M60.1036 0C59.4318 0 58.8859 0.545887 58.8859 1.21775 58.8859 1.88961 59.4318 2.4355 60.1036 2.4355 60.7755 2.4355 61.3214 1.88961 61.3214 1.21775 61.3214 0.545887 60.7755 0 60.1036 0Z" transform="matrix(1 0 0 1.00354 9.74129 732.054)"/><path d="M90.1181 15.6114C89.9221 15.4995 89.7962 15.2988 89.7355 15.0142L86.5348 0.0139971 84.16 0.0139971 84.6965 2.2722 76.7695 15.0142C76.5922 15.2988 76.3869 15.4948 76.1536 15.5975 75.925 15.7048 75.6124 15.7841 75.2252 15.8447L75.0479 16.7172 80.0868 16.7172 80.2408 15.8447C79.5549 15.8167 79.0604 15.7468 78.7524 15.6441 78.4445 15.5415 78.2952 15.3455 78.2952 15.0609 78.2952 14.7903 78.4445 14.4264 78.7431 13.9645L79.9422 12.0095 86.8381 12.0095 87.2533 13.9878C87.2813 14.2864 87.2953 14.487 87.2953 14.5897 87.2953 14.9489 87.1787 15.2195 86.9361 15.4062 86.6981 15.5928 86.4415 15.7094 86.1662 15.7561 85.891 15.7981 85.4897 15.8307 84.9672 15.8447L84.8085 16.7172 90.79 16.7172 90.9486 15.8447C90.5893 15.7981 90.3141 15.7234 90.1181 15.6114ZM80.6141 10.9131 85.1258 3.61592 86.6142 10.9131 80.6141 10.9131Z" transform="matrix(1 0 0 1.00354 9.74129 732.054)"/><path d="M101.092 15.4435C100.882 15.4435 100.779 15.3315 100.779 15.1076 100.779 15.0142 100.84 14.6876 100.957 14.1184L104.316 0.0139971 103.803 0.0139971 100.266 0.95647 100.149 1.40438 101.81 2.09957 101.027 5.38422C100.471 4.88033 99.7808 4.62371 98.9409 4.62371 97.7932 4.62371 96.6687 5.02963 95.5723 5.83213 94.4759 6.6393 93.5754 7.74041 92.8755 9.13545 92.171 10.5352 91.8211 12.0142 91.8211 13.5819 91.8211 14.6456 92.045 15.4668 92.4929 16.0594 92.9408 16.6472 93.566 16.9412 94.3732 16.9412 95.269 16.9412 96.1742 16.4419 97.0933 15.4435 98.0125 14.4404 98.829 13.1713 99.5475 11.6363L99.7015 11.6363C99.1649 13.4092 98.899 14.711 98.899 15.5321 98.899 15.9474 99.0063 16.288 99.2209 16.5493 99.4402 16.8105 99.7481 16.9412 100.149 16.9412 100.733 16.9412 101.292 16.7359 101.834 16.3253 102.37 15.9147 102.967 15.2195 103.625 14.2304L103.154 13.7638C102.272 14.8836 101.586 15.4435 101.092 15.4435ZM98.2271 12.8773C97.1073 14.6177 96.0995 15.4855 95.2037 15.4855 94.7698 15.4855 94.4432 15.2942 94.2193 14.9163 93.9953 14.5337 93.8833 14.0298 93.8833 13.4046 93.8973 12.1635 94.1213 10.9457 94.5505 9.75132 94.9844 8.5569 95.6003 7.55844 96.4028 6.75128 97.2006 5.94411 98.0778 5.54286 99.0343 5.54286 99.8088 5.54286 100.373 5.86479 100.733 6.50399 100.182 9.01414 99.3469 11.137 98.2271 12.8773Z" transform="matrix(1 0 0 1.00354 9.74129 732.054)"/><path d="M113.311 4.3531C112.546 4.3531 111.893 4.69837 111.342 5.38422L111.342 5.72949C112.733 5.72949 113.423 6.27071 113.423 7.35315 113.423 8.57557 112.826 9.8633 111.636 11.221L108.683 14.6317 107.834 4.35777 107.535 4.35777 104.47 5.16027 104.334 5.64084 106.005 6.21472 107.036 16.9505 107.927 16.9505 112.411 11.7996C113.405 10.6565 114.118 9.66734 114.562 8.83685 115.005 8.00635 115.224 7.19918 115.224 6.42001 115.224 5.84146 115.066 5.35156 114.753 4.95498 114.45 4.55373 113.969 4.3531 113.311 4.3531Z" transform="matrix(1 0 0 1.00354 9.74129 732.054)"/><path d="M118.178 15.4388C117.968 15.4388 117.865 15.3268 117.865 15.1029 117.865 14.9536 117.93 14.627 118.066 14.1184L120.394 4.62371 119.834 4.62371 116.316 5.38422 116.181 5.85546 117.884 6.55065 116.157 13.4932C115.947 14.375 115.845 15.0142 115.845 15.4202 115.845 15.8821 115.971 16.2507 116.227 16.5306 116.479 16.8059 116.815 16.9458 117.235 16.9458 117.818 16.9458 118.374 16.7452 118.906 16.3393 119.437 15.938 120.035 15.2335 120.706 14.2351L120.259 13.7638C119.353 14.8789 118.658 15.4388 118.178 15.4388Z" transform="matrix(1 0 0 1.00354 9.74129 732.054)"/><path d="M129.119 4.91299C128.601 4.53973 127.906 4.3531 127.038 4.3531 125.923 4.3531 124.99 4.68903 124.234 5.3609 123.478 6.03276 123.1 6.84926 123.1 7.81039 123.1 8.38894 123.319 9.00481 123.753 9.65334 124.187 10.3019 124.663 10.8571 125.172 11.3143 125.685 11.7716 126.156 12.2661 126.59 12.8027 127.024 13.3346 127.243 13.8012 127.243 14.1977 127.243 15.3268 126.646 15.8914 125.456 15.8914 124.173 15.8914 123.175 14.9396 122.456 13.0313L122.274 13.0313C121.602 13.3346 121.266 13.8338 121.266 14.5197 121.266 15.2055 121.588 15.7841 122.227 16.246 122.867 16.7126 123.707 16.9458 124.747 16.9458 125.843 16.9458 126.8 16.6052 127.607 15.9287 128.414 15.2475 128.82 14.361 128.82 13.2646 128.82 12.8074 128.675 12.3315 128.386 11.8322 128.097 11.3377 127.742 10.8711 127.322 10.4372 126.903 10.0033 126.483 9.58802 126.063 9.19144 125.643 8.79485 125.288 8.40294 124.999 8.01102 124.71 7.62376 124.565 7.28317 124.565 6.99389 124.565 6.0001 125.092 5.50553 126.142 5.50553 127.15 5.50553 127.994 6.20072 128.685 7.58644L128.913 7.58644C129.571 7.2645 129.898 6.86792 129.898 6.39668 129.898 5.78081 129.637 5.28624 129.119 4.91299Z" transform="matrix(1 0 0 1.00354 9.74129 732.054)"/><path d="M139.439 5.56619C138.73 4.75902 137.774 4.3531 136.565 4.3531 135.375 4.3531 134.288 4.75902 133.295 5.56619 132.301 6.37802 131.55 7.38581 131.027 8.5989 130.509 9.81198 130.253 11.0624 130.253 12.3408 130.253 13.7918 130.607 14.9209 131.316 15.7281 132.025 16.5399 132.982 16.9412 134.186 16.9412 135.375 16.9412 136.467 16.5399 137.461 15.7281 138.45 14.9209 139.206 13.9085 139.724 12.6954 140.246 11.4823 140.503 10.2366 140.503 8.95349 140.503 7.50712 140.148 6.37802 139.439 5.56619ZM137.862 11.8042C137.531 12.9567 137.046 13.9505 136.407 14.781 135.767 15.6114 135.049 16.0267 134.256 16.0267 133.677 16.0267 133.22 15.7514 132.893 15.2009 132.567 14.655 132.403 13.8851 132.403 12.8913 132.403 11.7762 132.567 10.6471 132.893 9.49471 133.22 8.34228 133.705 7.34849 134.349 6.51799 134.988 5.68749 135.707 5.27225 136.5 5.27225 137.078 5.27225 137.531 5.54286 137.862 6.09341 138.189 6.64396 138.352 7.41381 138.352 8.4076 138.352 9.51804 138.189 10.6518 137.862 11.8042Z" transform="matrix(1 0 0 1.00354 9.74129 732.054)"/><path d="M151.365 5.74815C151.365 5.36556 151.262 5.03896 151.057 4.76369 150.852 4.48841 150.525 4.3531 150.082 4.3531 149.335 4.3531 148.505 4.99697 147.6 6.28937 146.69 7.57711 145.603 9.5227 144.338 12.1168L144.18 12.1168 145.393 8.15565 146.354 4.3531 145.78 4.3531 142.323 5.13228 142.187 5.61284 143.928 6.32203 141.338 16.7172 143.424 16.7172C143.867 14.9489 144.46 13.2693 145.211 11.6783 145.957 10.0919 146.676 8.87884 147.362 8.03901 148.047 7.19918 148.589 6.77927 148.985 6.77927 149.415 6.77927 149.624 7.06388 149.624 7.62843L149.97 7.62843C150.898 7.18519 151.365 6.55998 151.365 5.74815Z" transform="matrix(1 0 0 1.00354 9.74129 732.054)"/><path d="M157.743 4.91299C157.225 4.53973 156.53 4.3531 155.662 4.3531 154.547 4.3531 153.614 4.68903 152.858 5.3609 152.102 6.03276 151.724 6.84926 151.724 7.81039 151.724 8.38894 151.943 9.00481 152.377 9.65334 152.811 10.3019 153.287 10.8571 153.796 11.3143 154.309 11.7716 154.78 12.2661 155.214 12.8027 155.648 13.3346 155.867 13.8012 155.867 14.1977 155.867 15.3268 155.27 15.8914 154.08 15.8914 152.797 15.8914 151.799 14.9396 151.08 13.0313L150.898 13.0313C150.226 13.3346 149.89 13.8338 149.89 14.5197 149.89 15.2055 150.212 15.7841 150.852 16.246 151.491 16.7126 152.331 16.9458 153.371 16.9458 154.468 16.9458 155.424 16.6052 156.231 15.9287 157.038 15.2475 157.444 14.361 157.444 13.2646 157.444 12.8074 157.3 12.3315 157.01 11.8322 156.721 11.3377 156.366 10.8711 155.947 10.4372 155.527 10.0033 155.107 9.58802 154.687 9.19144 154.267 8.79485 153.912 8.40294 153.623 8.01102 153.334 7.62376 153.189 7.28317 153.189 6.99389 153.189 6.0001 153.716 5.50553 154.766 5.50553 155.774 5.50553 156.618 6.20072 157.309 7.58644L157.538 7.58644C158.195 7.2645 158.522 6.86792 158.522 6.39668 158.517 5.78081 158.261 5.28624 157.743 4.91299Z" transform="matrix(1 0 0 1.00354 9.74129 732.054)"/><path d="M119.918 0C119.246 0 118.7 0.545887 118.7 1.21775 118.7 1.88961 119.246 2.4355 119.918 2.4355 120.59 2.4355 121.136 1.88961 121.136 1.21775 121.136 0.545887 120.59 0 119.918 0Z" transform="matrix(1 0 0 1.00354 9.74129 732.054)"/></g></g></g><g><path d="M42.5018 635.573 66.5028 635.573 66.5028 637.547 42.5018 637.547ZM125.505 634.573 148.506 634.573 148.506 637.547 125.505 637.547ZM207.509 633.573 230.51 633.573 230.51 637.547 207.509 637.547ZM289.512 628.573 313.513 628.573 313.513 637.547 289.512 637.547ZM372.516 617.571 395.517 617.571 395.517 637.547 372.516 637.547ZM454.519 610.571 477.52 610.571 477.52 637.547 454.519 637.547ZM536.523 599.569 560.523 599.569 560.523 637.547 536.523 637.547ZM619.526 588.568 642.527 588.568 642.527 637.547 619.526 637.547ZM701.529 584.568 725.53 584.568 725.53 637.547 701.529 637.547ZM783.533 585.568 807.534 585.568 807.534 637.547 783.533 637.547ZM866.536 586.568 889.537 586.568 889.537 637.547 866.536 637.547ZM948.54 609.57 972.541 609.57 972.541 637.547 948.54 637.547ZM1030.54 620.572 1054.54 620.572 1054.54 637.547 1030.54 637.547Z" stroke="#FFFFFF" stroke-width="1.00015" stroke-linejoin="round" stroke-miterlimit="10" fill="#F6F6F6"/></g><g><path d="M66.5028 629.573 89.5038 629.573 89.5038 637.547 66.5028 637.547ZM148.506 628.573 172.507 628.573 172.507 637.547 148.506 637.547ZM230.51 616.571 254.511 616.571 254.511 637.547 230.51 637.547ZM313.513 612.571 336.514 612.571 336.514 637.547 313.513 637.547ZM395.517 602.57 419.518 602.57 419.518 637.547 395.517 637.547ZM477.52 597.569 501.521 597.569 501.521 637.547 477.52 637.547ZM560.523 601.569 583.524 601.569 583.524 637.547 560.523 637.547ZM642.527 596.569 666.528 596.569 666.528 637.547 642.527 637.547ZM725.53 587.568 748.531 587.568 748.531 637.547 725.53 637.547ZM807.534 592.568 830.535 592.568 830.535 637.547 807.534 637.547ZM889.537 596.569 913.538 596.569 913.538 637.547 889.537 637.547ZM972.541 601.569 995.542 601.569 995.542 637.547 972.541 637.547ZM1054.54 625.572 1077.55 625.572 1077.55 637.547 1054.54 637.547Z" stroke="#FFFFFF" stroke-width="1.00015" stroke-linejoin="round" stroke-miterlimit="10" fill="#CEF8D6"/></g><g><path d="M0 0 0.000105002 543" stroke="#FFFFFF" stroke-width="1.00015" stroke-linejoin="round" stroke-miterlimit="10" fill="none" fill-rule="evenodd" transform="matrix(1 0 0 -1.00007 25.5 637.547)"/></g><g><path d="M25.5 637.547 1095.5 637.547" stroke="#000000" stroke-width="1.00015" stroke-linejoin="round" stroke-miterlimit="10" fill="none" fill-rule="evenodd"/></g><g><path d="M66 584.067 149.006 604.044 231.01 589.068 313.013 579.067 396.017 560.065 478.02 553.064 560.023 561.065 643.027 559.065 725.03 531.061 807.034 540.062 890.037 502.058 972.041 499.058 1054 497.036" stroke="#5E4AC3" stroke-width="4.00059" stroke-linecap="round" stroke-linejoin="round" stroke-miterlimit="10" fill="none"/></g><g><path d="M62.6672 581.388 68.667 581.388 68.667 587.388 62.6672 587.388Z" stroke="#5E4AC3" stroke-width="4.00059" stroke-linejoin="round" stroke-miterlimit="10" fill="#5E4AC3"/><path d="M145.667 601.389 151.667 601.389 151.667 607.39 145.667 607.39Z" stroke="#5E4AC3" stroke-width="4.00059" stroke-linejoin="round" stroke-miterlimit="10" fill="#5E4AC3"/><path d="M227.667 586.388 233.667 586.388 233.667 592.388 227.667 592.388Z" stroke="#5E4AC3" stroke-width="4.00059" stroke-linejoin="round" stroke-miterlimit="10" fill="#5E4AC3"/><path d="M309.667 576.387 315.667 576.387 315.667 582.388 309.667 582.388Z" stroke="#5E4AC3" stroke-width="4.00059" stroke-linejoin="round" stroke-miterlimit="10" fill="#5E4AC3"/><path d="M392.667 557.386 398.667 557.386 398.667 563.386 392.667 563.386Z" stroke="#5E4AC3" stroke-width="4.00059" stroke-linejoin="round" stroke-miterlimit="10" fill="#5E4AC3"/><path d="M474.667 550.385 480.667 550.385 480.667 556.386 474.667 556.386Z" stroke="#5E4AC3" stroke-width="4.00059" stroke-linejoin="round" stroke-miterlimit="10" fill="#5E4AC3"/><path d="M556.667 558.386 562.667 558.386 562.667 564.386 556.667 564.386Z" stroke="#5E4AC3" stroke-width="4.00059" stroke-linejoin="round" stroke-miterlimit="10" fill="#5E4AC3"/><path d="M639.667 556.386 645.667 556.386 645.667 562.386 639.667 562.386Z" stroke="#5E4AC3" stroke-width="4.00059" stroke-linejoin="round" stroke-miterlimit="10" fill="#5E4AC3"/><path d="M721.667 528.384 727.667 528.384 727.667 534.384 721.667 534.384Z" stroke="#5E4AC3" stroke-width="4.00059" stroke-linejoin="round" stroke-miterlimit="10" fill="#5E4AC3"/><path d="M803.667 537.385 809.667 537.385 809.667 543.385 803.667 543.385Z" stroke="#5E4AC3" stroke-width="4.00059" stroke-linejoin="round" stroke-miterlimit="10" fill="#5E4AC3"/><path d="M886.667 499.382 892.667 499.382 892.667 505.382 886.667 505.382Z" stroke="#5E4AC3" stroke-width="4.00059" stroke-linejoin="round" stroke-miterlimit="10" fill="#5E4AC3"/><path d="M968.667 496.382 974.667 496.382 974.667 502.382 968.667 502.382Z" stroke="#5E4AC3" stroke-width="4.00059" stroke-linejoin="round" stroke-miterlimit="10" fill="#5E4AC3"/><path d="M1050.67 494.381 1056.67 494.381 1056.67 500.382 1050.67 500.382Z" stroke="#5E4AC3" stroke-width="4.00059" stroke-linejoin="round" stroke-miterlimit="10" fill="#5E4AC3"/></g><g><path d="M68.667 587.388 62.6672 581.388M62.6672 587.388 68.667 581.388" stroke="#5E4AC3" stroke-width="4.00059" stroke-linejoin="round" stroke-miterlimit="10" fill="#5E4AC3"/><path d="M151.667 607.39 145.667 601.389M145.667 607.39 151.667 601.389" stroke="#5E4AC3" stroke-width="4.00059" stroke-linejoin="round" stroke-miterlimit="10" fill="#5E4AC3"/><path d="M233.667 592.388 227.667 586.388M227.667 592.388 233.667 586.388" stroke="#5E4AC3" stroke-width="4.00059" stroke-linejoin="round" stroke-miterlimit="10" fill="#5E4AC3"/><path d="M315.667 582.388 309.667 576.387M309.667 582.388 315.667 576.387" stroke="#5E4AC3" stroke-width="4.00059" stroke-linejoin="round" stroke-miterlimit="10" fill="#5E4AC3"/><path d="M398.667 563.386 392.667 557.386M392.667 563.386 398.667 557.386" stroke="#5E4AC3" stroke-width="4.00059" stroke-linejoin="round" stroke-miterlimit="10" fill="#5E4AC3"/><path d="M480.667 556.386 474.667 550.385M474.667 556.386 480.667 550.385" stroke="#5E4AC3" stroke-width="4.00059" stroke-linejoin="round" stroke-miterlimit="10" fill="#5E4AC3"/><path d="M562.667 564.386 556.667 558.386M556.667 564.386 562.667 558.386" stroke="#5E4AC3" stroke-width="4.00059" stroke-linejoin="round" stroke-miterlimit="10" fill="#5E4AC3"/><path d="M645.667 562.386 639.667 556.386M639.667 562.386 645.667 556.386" stroke="#5E4AC3" stroke-width="4.00059" stroke-linejoin="round" stroke-miterlimit="10" fill="#5E4AC3"/><path d="M727.667 534.384 721.667 528.384M721.667 534.384 727.667 528.384" stroke="#5E4AC3" stroke-width="4.00059" stroke-linejoin="round" stroke-miterlimit="10" fill="#5E4AC3"/><path d="M809.667 543.385 803.667 537.385M803.667 543.385 809.667 537.385" stroke="#5E4AC3" stroke-width="4.00059" stroke-linejoin="round" stroke-miterlimit="10" fill="#5E4AC3"/><path d="M892.667 505.382 886.667 499.382M886.667 505.382 892.667 499.382" stroke="#5E4AC3" stroke-width="4.00059" stroke-linejoin="round" stroke-miterlimit="10" fill="#5E4AC3"/><path d="M974.667 502.382 968.667 496.382M968.667 502.382 974.667 496.382" stroke="#5E4AC3" stroke-width="4.00059" stroke-linejoin="round" stroke-miterlimit="10" fill="#5E4AC3"/><path d="M1056.67 500.382 1050.67 494.381M1050.67 500.382 1056.67 494.381" stroke="#5E4AC3" stroke-width="4.00059" stroke-linejoin="round" stroke-miterlimit="10" fill="#5E4AC3"/></g><g><path d="M66 513.059 149.006 534.062 231.01 549.04 313.013 495.057 396.017 482.056 478.02 443.051 560.023 443.051 643.027 447.052 725.03 409.047 807.034 304.035 890.037 366.042 972.041 129.009 1054 249.029" stroke="#00B050" stroke-width="4.00059" stroke-linecap="round" stroke-linejoin="round" stroke-miterlimit="10" fill="none"/></g><g><path d="M62.6672 510.383 68.667 510.383 68.667 516.383 62.6672 516.383Z" stroke="#00B050" stroke-width="4.00059" stroke-linejoin="round" stroke-miterlimit="10" fill="#00B050"/><path d="M145.667 531.384 151.667 531.384 151.667 537.384 145.667 537.384Z" stroke="#00B050" stroke-width="4.00059" stroke-linejoin="round" stroke-miterlimit="10" fill="#00B050"/><path d="M227.667 546.385 233.667 546.385 233.667 552.385 227.667 552.385Z" stroke="#00B050" stroke-width="4.00059" stroke-linejoin="round" stroke-miterlimit="10" fill="#00B050"/><path d="M309.667 492.381 315.667 492.381 315.667 498.382 309.667 498.382Z" stroke="#00B050" stroke-width="4.00059" stroke-linejoin="round" stroke-miterlimit="10" fill="#00B050"/><path d="M392.667 479.38 398.667 479.38 398.667 485.381 392.667 485.381Z" stroke="#00B050" stroke-width="4.00059" stroke-linejoin="round" stroke-miterlimit="10" fill="#00B050"/><path d="M474.667 440.377 480.667 440.377 480.667 446.378 474.667 446.378Z" stroke="#00B050" stroke-width="4.00059" stroke-linejoin="round" stroke-miterlimit="10" fill="#00B050"/><path d="M556.667 440.377 562.667 440.377 562.667 446.378 556.667 446.378Z" stroke="#00B050" stroke-width="4.00059" stroke-linejoin="round" stroke-miterlimit="10" fill="#00B050"/><path d="M639.667 444.378 645.667 444.378 645.667 450.378 639.667 450.378Z" stroke="#00B050" stroke-width="4.00059" stroke-linejoin="round" stroke-miterlimit="10" fill="#00B050"/><path d="M721.667 406.375 727.667 406.375 727.667 412.375 721.667 412.375Z" stroke="#00B050" stroke-width="4.00059" stroke-linejoin="round" stroke-miterlimit="10" fill="#00B050"/><path d="M803.667 301.367 809.667 301.367 809.667 307.367 803.667 307.367Z" stroke="#00B050" stroke-width="4.00059" stroke-linejoin="round" stroke-miterlimit="10" fill="#00B050"/><path d="M886.667 363.372 892.667 363.372 892.667 369.372 886.667 369.372Z" stroke="#00B050" stroke-width="4.00059" stroke-linejoin="round" stroke-miterlimit="10" fill="#00B050"/><path d="M968.667 126.354 974.667 126.354 974.667 132.355 968.667 132.355Z" stroke="#00B050" stroke-width="4.00059" stroke-linejoin="round" stroke-miterlimit="10" fill="#00B050"/><path d="M1050.67 246.363 1056.67 246.363 1056.67 252.363 1050.67 252.363Z" stroke="#00B050" stroke-width="4.00059" stroke-linejoin="round" stroke-miterlimit="10" fill="#00B050"/></g><g><path d="M68.667 516.383 62.6672 510.383M62.6672 516.383 68.667 510.383" stroke="#00B050" stroke-width="4.00059" stroke-linejoin="round" stroke-miterlimit="10" fill="#00B050"/><path d="M151.667 537.384 145.667 531.384M145.667 537.384 151.667 531.384" stroke="#00B050" stroke-width="4.00059" stroke-linejoin="round" stroke-miterlimit="10" fill="#00B050"/><path d="M233.667 552.385 227.667 546.385M227.667 552.385 233.667 546.385" stroke="#00B050" stroke-width="4.00059" stroke-linejoin="round" stroke-miterlimit="10" fill="#00B050"/><path d="M315.667 498.382 309.667 492.381M309.667 498.382 315.667 492.381" stroke="#00B050" stroke-width="4.00059" stroke-linejoin="round" stroke-miterlimit="10" fill="#00B050"/><path d="M398.667 485.381 392.667 479.38M392.667 485.381 398.667 479.38" stroke="#00B050" stroke-width="4.00059" stroke-linejoin="round" stroke-miterlimit="10" fill="#00B050"/><path d="M480.667 446.378 474.667 440.377M474.667 446.378 480.667 440.377" stroke="#00B050" stroke-width="4.00059" stroke-linejoin="round" stroke-miterlimit="10" fill="#00B050"/><path d="M562.667 446.378 556.667 440.377M556.667 446.378 562.667 440.377" stroke="#00B050" stroke-width="4.00059" stroke-linejoin="round" stroke-miterlimit="10" fill="#00B050"/><path d="M645.667 450.378 639.667 444.378M639.667 450.378 645.667 444.378" stroke="#00B050" stroke-width="4.00059" stroke-linejoin="round" stroke-miterlimit="10" fill="#00B050"/><path d="M727.667 412.375 721.667 406.375M721.667 412.375 727.667 406.375" stroke="#00B050" stroke-width="4.00059" stroke-linejoin="round" stroke-miterlimit="10" fill="#00B050"/><path d="M809.667 307.367 803.667 301.367M803.667 307.367 809.667 301.367" stroke="#00B050" stroke-width="4.00059" stroke-linejoin="round" stroke-miterlimit="10" fill="#00B050"/><path d="M892.667 369.372 886.667 363.372M886.667 369.372 892.667 363.372" stroke="#00B050" stroke-width="4.00059" stroke-linejoin="round" stroke-miterlimit="10" fill="#00B050"/><path d="M974.667 132.355 968.667 126.354M968.667 132.355 974.667 126.354" stroke="#00B050" stroke-width="4.00059" stroke-linejoin="round" stroke-miterlimit="10" fill="#00B050"/><path d="M1056.67 252.363 1050.67 246.363M1050.67 252.363 1056.67 246.363" stroke="#00B050" stroke-width="4.00059" stroke-linejoin="round" stroke-miterlimit="10" fill="#00B050"/></g><g><text font-family="Arial,Arial_MSFontService,sans-serif" font-weight="400" font-size="14.0031" transform="matrix(1 0 0 1.00007 50.5234 626)">6</text></g><g><text font-family="Arial,Arial_MSFontService,sans-serif" font-weight="400" font-size="14.0031" transform="matrix(1 0 0 1.00007 132.882 626)">8</text></g><g><text font-family="Arial,Arial_MSFontService,sans-serif" font-weight="400" font-size="14.0031" transform="matrix(1 0 0 1.00007 211.346 624)">14</text></g><g><text font-family="Arial,Arial_MSFontService,sans-serif" font-weight="400" font-size="14.0031" transform="matrix(1 0 0 1.00007 293.704 619)">33</text></g><g><text font-family="Arial,Arial_MSFontService,sans-serif" font-weight="400" font-size="14.0031" transform="matrix(1 0 0 1.00007 376.062 609)">70</text></g><g><text font-family="Arial,Arial_MSFontService,sans-serif" font-weight="400" font-size="14.0031" transform="matrix(1 0 0 1.00007 458.421 602)">96</text></g><g><text font-family="Arial,Arial_MSFontService,sans-serif" font-weight="400" font-size="14.0031" transform="matrix(1 0 0 1.00007 523.946 596)">138</text></g><g><text font-family="Arial,Arial_MSFontService,sans-serif" font-weight="400" font-size="14.0031" transform="matrix(1 0 0 1.00007 611.849 578)">178</text></g><g><text font-family="Arial,Arial_MSFontService,sans-serif" font-weight="400" font-size="14.0031" transform="matrix(1 0 0 1.00007 694.208 576)">192</text></g><g><text font-family="Arial,Arial_MSFontService,sans-serif" font-weight="400" font-size="14.0031" transform="matrix(1 0 0 1.00007 778.414 576)">190</text></g><g><text font-family="Arial,Arial_MSFontService,sans-serif" font-weight="400" font-size="14.0031" transform="matrix(1 0 0 1.00007 857.076 578)">185</text></g><g><text font-family="Arial,Arial_MSFontService,sans-serif" font-weight="400" font-size="14.0031" transform="matrix(1 0 0 1.00007 948.676 600)">102</text></g><g><text font-family="Arial,Arial_MSFontService,sans-serif" font-weight="400" font-size="14.0031" transform="matrix(1 0 0 1.00007 1034.93 611)">61</text></g><g><text font-family="Arial,Arial_MSFontService,sans-serif" font-weight="400" font-size="14.6699" transform="matrix(1 0 0 1.00007 69.787 621)">27</text></g><g><text font-family="Arial,Arial_MSFontService,sans-serif" font-weight="400" font-size="14.6699" transform="matrix(1 0 0 1.00007 152.145 620)">32</text></g><g><text font-family="Arial,Arial_MSFontService,sans-serif" font-weight="400" font-size="14.6699" transform="matrix(1 0 0 1.00007 234.504 608)">76</text></g><g><text font-family="Arial,Arial_MSFontService,sans-serif" font-weight="400" font-size="14.6699" transform="matrix(1 0 0 1.00007 316.862 604)">89</text></g><g><text font-family="Arial,Arial_MSFontService,sans-serif" font-weight="400" font-size="14.6699" transform="matrix(1 0 0 1.00007 395.139 593)">128</text></g><g><text font-family="Arial,Arial_MSFontService,sans-serif" font-weight="400" font-size="14.6699" transform="matrix(1 0 0 1.00007 477.498 589)">144</text></g><g><text font-family="Arial,Arial_MSFontService,sans-serif" font-weight="400" font-size="14.6699" transform="matrix(1 0 0 1.00007 559.856 593)">130</text></g><g><text font-family="Arial,Arial_MSFontService,sans-serif" font-weight="400" font-size="14.6699" transform="matrix(1 0 0 1.00007 642.214 588)">149</text></g><g><text font-family="Arial,Arial_MSFontService,sans-serif" font-weight="400" font-size="14.6699" transform="matrix(1 0 0 1.00007 724.573 579)">182</text></g><g><text font-family="Arial,Arial_MSFontService,sans-serif" font-weight="400" font-size="14.6699" transform="matrix(1 0 0 1.00007 806.931 583)">165</text></g><g><text font-family="Arial,Arial_MSFontService,sans-serif" font-weight="400" font-size="14.6699" transform="matrix(1 0 0 1.00007 889.289 588)">149</text></g><g><text font-family="Arial,Arial_MSFontService,sans-serif" font-weight="400" font-size="14.6699" transform="matrix(1 0 0 1.00007 971.647 593)">129</text></g><g><text font-family="Arial,Arial_MSFontService,sans-serif" font-weight="400" font-size="14.6699" transform="matrix(1 0 0 1.00007 1058.09 616)">44</text></g><g><text font-family="Arial,Arial_MSFontService,sans-serif" font-weight="400" font-size="16.0035" transform="matrix(1 0 0 1.00007 59.0329 565)">$1.4M</text></g><g><text font-family="Arial,Arial_MSFontService,sans-serif" font-weight="400" font-size="16.0035" transform="matrix(1 0 0 1.00007 137.694 577)">$0.9M</text></g><g><text font-family="Arial,Arial_MSFontService,sans-serif" font-weight="400" font-size="16.0035" transform="matrix(1 0 0 1.00007 211.563 577)">$1.3M</text></g><g><text font-family="Arial,Arial_MSFontService,sans-serif" font-weight="400" font-size="16.0035" transform="matrix(1 0 0 1.00007 295.017 559)">$1.5M</text></g><g><text font-family="Arial,Arial_MSFontService,sans-serif" font-weight="400" font-size="16.0035" transform="matrix(1 0 0 1.00007 373.678 540)">$2.0M</text></g><g><text font-family="Arial,Arial_MSFontService,sans-serif" font-weight="400" font-size="16.0035" transform="matrix(1 0 0 1.00007 441.248 533)">$2.2M</text></g><g><text font-family="Arial,Arial_MSFontService,sans-serif" font-weight="400" font-size="16.0035" transform="matrix(1 0 0 1.00007 532.849 545)">$2.0M</text></g><g><text font-family="Arial,Arial_MSFontService,sans-serif" font-weight="400" font-size="16.0035" transform="matrix(1 0 0 1.00007 591.177 540)">$2.0M</text></g><g><text font-family="Arial,Arial_MSFontService,sans-serif" font-weight="400" font-size="16.0035" transform="matrix(1 0 0 1.00007 705.713 520)">$2.7M</text></g><g><text font-family="Arial,Arial_MSFontService,sans-serif" font-weight="400" font-size="16.0035" transform="matrix(1 0 0 1.00007 776.622 525)">$2.5M</text></g><g><text font-family="Arial,Arial_MSFontService,sans-serif" font-weight="400" font-size="16.0035" transform="matrix(1 0 0 1.00007 873.096 489)">$3.5M</text></g><g><text font-family="Arial,Arial_MSFontService,sans-serif" font-weight="400" font-size="16.0035" transform="matrix(1 0 0 1.00007 955.455 487)">$3.6M</text></g><g><text font-family="Arial,Arial_MSFontService,sans-serif" font-weight="400" font-size="16.0035" transform="matrix(1 0 0 1.00007 1032.48 486)">$3.6M</text></g><g><text font-family="Arial,Arial_MSFontService,sans-serif" font-weight="400" font-size="16.0035" transform="matrix(1 0 0 1.00007 43.9429 500)">$3.2M</text></g><g><text font-family="Arial,Arial_MSFontService,sans-serif" font-weight="400" font-size="16.0035" transform="matrix(1 0 0 1.00007 126.301 522)">$2.7M</text></g><g><text font-family="Arial,Arial_MSFontService,sans-serif" font-weight="400" font-size="16.0035" transform="matrix(1 0 0 1.00007 193.991 533)">$2.3M</text></g><g><text font-family="Arial,Arial_MSFontService,sans-serif" font-weight="400" font-size="16.0035" transform="matrix(1 0 0 1.00007 291.018 482)">$3.7M</text></g><g><text font-family="Arial,Arial_MSFontService,sans-serif" font-weight="400" font-size="16.0035" transform="matrix(1 0 0 1.00007 373.376 469)">$4.0M</text></g><g><text font-family="Arial,Arial_MSFontService,sans-serif" font-weight="400" font-size="16.0035" transform="matrix(1 0 0 1.00007 455.734 430)">$5.0M</text></g><g><text font-family="Arial,Arial_MSFontService,sans-serif" font-weight="400" font-size="16.0035" transform="matrix(1 0 0 1.00007 538.093 430)">$5.0M</text></g><g><text font-family="Arial,Arial_MSFontService,sans-serif" font-weight="400" font-size="16.0035" transform="matrix(1 0 0 1.00007 620.451 434)">$4.9M</text></g><g><text font-family="Arial,Arial_MSFontService,sans-serif" font-weight="400" font-size="16.0035" transform="matrix(1 0 0 1.00007 667.259 384)">$5.9M</text></g><g><text font-family="Arial,Arial_MSFontService,sans-serif" font-weight="400" font-size="16.0035" transform="matrix(1 0 0 1.00007 785.167 291)">$8.6M</text></g><g><text font-family="Arial,Arial_MSFontService,sans-serif" font-weight="400" font-size="16.0035" transform="matrix(1 0 0 1.00007 853.115 332)">$7.0M</text></g><g><text font-family="Arial,Arial_MSFontService,sans-serif" font-weight="400" font-size="16.0035" transform="matrix(1 0 0 1.00007 945.433 116)">$13.1M</text></g><g><text font-family="Arial,Arial_MSFontService,sans-serif" font-weight="400" font-size="16.0035" transform="matrix(1 0 0 1.00007 1035.79 270)">$10.0M</text></g><g><text fill="#FFFFFF" font-family="Arial,Arial_MSFontService,sans-serif" font-weight="400" font-size="1" transform="matrix(1 0 0 1.00007 1096.81 637)">0</text></g><g><text fill="#FFFFFF" font-family="Arial,Arial_MSFontService,sans-serif" font-weight="400" font-size="1" transform="matrix(1 0 0 1.00007 1096.81 583)">200</text></g><g><text fill="#FFFFFF" font-family="Arial,Arial_MSFontService,sans-serif" font-weight="400" font-size="1" transform="matrix(1 0 0 1.00007 1096.81 529)">400</text></g><g><text fill="#FFFFFF" font-family="Arial,Arial_MSFontService,sans-serif" font-weight="400" font-size="1" transform="matrix(1 0 0 1.00007 1096.81 474)">600</text></g><g><text fill="#FFFFFF" font-family="Arial,Arial_MSFontService,sans-serif" font-weight="400" font-size="1" transform="matrix(1 0 0 1.00007 1096.81 420)">800</text></g><g><text fill="#FFFFFF" font-family="Arial,Arial_MSFontService,sans-serif" font-weight="400" font-size="1" transform="matrix(1 0 0 1.00007 1096.81 366)">1,000</text></g><g><text fill="#FFFFFF" font-family="Arial,Arial_MSFontService,sans-serif" font-weight="400" font-size="1" transform="matrix(1 0 0 1.00007 1096.81 311)">1,200</text></g><g><text fill="#FFFFFF" font-family="Arial,Arial_MSFontService,sans-serif" font-weight="400" font-size="1" transform="matrix(1 0 0 1.00007 1096.81 257)">1,400</text></g><g><text fill="#FFFFFF" font-family="Arial,Arial_MSFontService,sans-serif" font-weight="400" font-size="1" transform="matrix(1 0 0 1.00007 1096.81 203)">1,600</text></g><g><text fill="#FFFFFF" font-family="Arial,Arial_MSFontService,sans-serif" font-weight="400" font-size="1" transform="matrix(1 0 0 1.00007 1096.81 149)">1,800</text></g><g><text fill="#FFFFFF" font-family="Arial,Arial_MSFontService,sans-serif" font-weight="400" font-size="1" transform="matrix(1 0 0 1.00007 1096.81 94)">2,000</text></g><g><text fill="#FFFFFF" font-family="Arial,Arial_MSFontService,sans-serif" font-weight="400" font-size="1" transform="matrix(1 0 0 1.00007 21.9177 637)">-</text></g><g><text fill="#FFFFFF" font-family="Arial,Arial_MSFontService,sans-serif" font-weight="400" font-size="1" transform="matrix(1 0 0 1.00007 20.5173 560)">2.00</text></g><g><text fill="#FFFFFF" font-family="Arial,Arial_MSFontService,sans-serif" font-weight="400" font-size="1" transform="matrix(1 0 0 1.00007 20.5173 482)">4.00</text></g><g><text fill="#FFFFFF" font-family="Arial,Arial_MSFontService,sans-serif" font-weight="400" font-size="1" transform="matrix(1 0 0 1.00007 20.5173 405)">6.00</text></g><g><text fill="#FFFFFF" font-family="Arial,Arial_MSFontService,sans-serif" font-weight="400" font-size="1" transform="matrix(1 0 0 1.00007 20.5173 327)">8.00</text></g><g><text fill="#FFFFFF" font-family="Arial,Arial_MSFontService,sans-serif" font-weight="400" font-size="1" transform="matrix(1 0 0 1.00007 19.7772 249)">10.00</text></g><g><text fill="#FFFFFF" font-family="Arial,Arial_MSFontService,sans-serif" font-weight="400" font-size="1" transform="matrix(1 0 0 1.00007 19.7772 172)">12.00</text></g><g><text fill="#FFFFFF" font-family="Arial,Arial_MSFontService,sans-serif" font-weight="400" font-size="1" transform="matrix(1 0 0 1.00007 19.7772 94)">14.00</text></g><g><text font-family="Arial,Arial_MSFontService,sans-serif" font-weight="400" font-size="16" transform="matrix(1 0 0 1.00007 48.3801 661)">2013</text></g><g><text font-family="Arial,Arial_MSFontService,sans-serif" font-weight="400" font-size="16" transform="matrix(1 0 0 1.00007 130.738 661)">2014</text></g><g><text font-family="Arial,Arial_MSFontService,sans-serif" font-weight="400" font-size="16" transform="matrix(1 0 0 1.00007 213.097 661)">2015</text></g><g><text font-family="Arial,Arial_MSFontService,sans-serif" font-weight="400" font-size="16" transform="matrix(1 0 0 1.00007 295.455 661)">2016</text></g><g><text font-family="Arial,Arial_MSFontService,sans-serif" font-weight="400" font-size="16" transform="matrix(1 0 0 1.00007 377.813 661)">2017</text></g><g><text font-family="Arial,Arial_MSFontService,sans-serif" font-weight="400" font-size="16" transform="matrix(1 0 0 1.00007 460.171 661)">2018</text></g><g><text font-family="Arial,Arial_MSFontService,sans-serif" font-weight="400" font-size="16" transform="matrix(1 0 0 1.00007 542.53 661)">2019</text></g><g><text font-family="Arial,Arial_MSFontService,sans-serif" font-weight="400" font-size="16" transform="matrix(1 0 0 1.00007 624.888 661)">2020</text></g><g><text font-family="Arial,Arial_MSFontService,sans-serif" font-weight="400" font-size="16" transform="matrix(1 0 0 1.00007 707.246 661)">2021</text></g><g><text font-family="Arial,Arial_MSFontService,sans-serif" font-weight="400" font-size="16" transform="matrix(1 0 0 1.00007 789.604 661)">2022</text></g><g><text font-family="Arial,Arial_MSFontService,sans-serif" font-weight="400" font-size="16" transform="matrix(1 0 0 1.00007 871.963 661)">2023</text></g><g><text font-family="Arial,Arial_MSFontService,sans-serif" font-weight="400" font-size="16" transform="matrix(1 0 0 1.00007 954.321 661)">2024</text></g><g><text font-family="Arial,Arial_MSFontService,sans-serif" font-weight="400" font-size="16" transform="matrix(1 0 0 1.00007 1024.23 661)">H1 2025</text></g><g><rect x="316.5" y="96.507" width="25" height="8.00061" stroke="#FFFFFF" stroke-width="1.00015" stroke-linejoin="round" stroke-miterlimit="10" fill="#F6F6F6"/></g><g><text font-family="Arial,Arial_MSFontService,sans-serif" font-weight="400" font-size="16" transform="matrix(1 0 0 1.00007 344.472 105)">Sample Pre-Seed</text></g><g><rect x="492.5" y="96.507" width="26.0001" height="8.00061" stroke="#FFFFFF" stroke-width="1.00015" stroke-linejoin="round" stroke-miterlimit="10" fill="#CEF8D6"/></g><g><text font-family="Arial,Arial_MSFontService,sans-serif" font-weight="400" font-size="16" transform="matrix(1 0 0 1.00007 521.012 105)">Sample Seed</text></g><g><path d="M639 100.007 665 100.007" stroke="#5E4AC3" stroke-width="4.00059" stroke-linecap="round" stroke-linejoin="round" stroke-miterlimit="10" fill="none" fill-rule="evenodd"/></g><g><path d="M648 97.0071 654 97.0071 654 103.008 648 103.008Z" stroke="#5E4AC3" stroke-width="4.00059" stroke-linejoin="round" stroke-miterlimit="10" fill="#5E4AC3"/></g><g><path d="M654 103.008 648 97.0071M648 103.008 654 97.0071" stroke="#5E4AC3" stroke-width="4.00059" stroke-linejoin="round" stroke-miterlimit="10" fill="#5E4AC3"/></g><g><text font-family="Arial,Arial_MSFontService,sans-serif" font-weight="400" font-size="16" transform="matrix(1 0 0 1.00007 667.322 105)">Pre-Seed</text></g><g><path d="M757 100.007 782 100.007" stroke="#00B050" stroke-width="4.00059" stroke-linecap="round" stroke-linejoin="round" stroke-miterlimit="10" fill="none" fill-rule="evenodd"/></g><g><path d="M766 97.0071 772 97.0071 772 103.008 766 103.008Z" stroke="#00B050" stroke-width="4.00059" stroke-linejoin="round" stroke-miterlimit="10" fill="#00B050"/></g><g><path d="M772 103.008 766 97.0071M766 103.008 772 97.0071" stroke="#00B050" stroke-width="4.00059" stroke-linejoin="round" stroke-miterlimit="10" fill="#00B050"/></g><g><text font-family="Arial,Arial_MSFontService,sans-serif" font-weight="400" font-size="16" transform="matrix(1 0 0 1.00007 785.153 105)">Seed</text></g><text fill="#5E4AC3" font-family="Tiempos Headline Light,Tiempos Headline Light_MSFontService,sans-serif" font-style="italic" font-weight="300" font-size="37.3416" transform="matrix(1 0 0 1.00007 3.66721 46)">AI Valuations:</text><text font-family="Tiempos Headline Light,Tiempos Headline Light_MSFontService,sans-serif" font-weight="300" font-size="37.3416" transform="matrix(1 0 0 1.00007 232.981 46)">Median pre</text><text font-family="Tiempos Headline Light,Tiempos Headline Light_MSFontService,sans-serif" font-weight="300" font-size="37.3416" transform="matrix(1 0 0 1.00007 414.108 46)">-</text><text font-family="Tiempos Headline Light,Tiempos Headline Light_MSFontService,sans-serif" font-weight="300" font-size="37.3416" transform="matrix(1 0 0 1.00007 426.109 46)">money valuation</text><path d="M4.49998 60.5045 1131.17 60.5046" stroke="#000000" stroke-width="0.666765" stroke-miterlimit="8" fill="none" fill-rule="evenodd"/><text font-family="Arial,Arial_MSFontService,sans-serif" font-weight="400" font-size="12.0026" transform="matrix(1 0 0 1.00007 339.606 746)">Source:</text><text font-family="Arial,Arial_MSFontService,sans-serif" font-weight="400" font-size="12.0026" transform="matrix(1 0 0 1.00007 384.279 746)">Crunchbase, Aventis Advisors Analysis</text><text font-family="Arial,Arial_MSFontService,sans-serif" font-weight="400" font-size="18.6708" transform="matrix(-1.83697e-16 -1.00015 0.999927 -1.83711e-16 1118.97 626)">Sample (n)</text><text font-family="Arial,Arial_MSFontService,sans-serif" font-weight="700" font-size="16.0035" transform="matrix(1 0 0 1.00007 74.7144 138)">Figures in</text><text font-family="Arial,Arial_MSFontService,sans-serif" font-weight="700" font-size="16.0035" transform="matrix(1 0 0 1.00007 155.893 138)">$</text><text font-family="Arial,Arial_MSFontService,sans-serif" font-weight="700" font-size="16.0035" transform="matrix(1 0 0 1.00007 164.728 138)">M</text></g></svg>